PathFileType	4	(X/Y/Z)	FAIDC1_INITIAL_WALK01.trc	
DataRate	CameraRate	NumFrames	NumMarkers	Units	OrigDataRate	OrigDataStartFrame	OrigNumFrames
100	100	6	49	mm	100	258	113
Frame#	Time	RSH			LSH			C7			LELB			LWR			RELB			RWR			RASI			LASI			SACR			P1			P2			P3			LTHLP			LTHLD			LTHAP			LTHAD			LLEPI			LPAT			LMEPI			LTIAP			LTIAD			LTILAT			LLMAL			LMMAL			LHEEL			LMFS			LMFL			LP5MT			LP1MT			LTOE			RTHLP			RTHLD			RTHAP			RTHAD			RLEPI			RPAT			RMEPI			RTIAP			RTIAD			RTILAT			RLMAL			RMMAL			RHEEL			RMFS			RMFL			RP5MT			RP1MT			RTOE			
		X1	Y1	Z1	X2	Y2	Z2	X3	Y3	Z3	X4	Y4	Z4	X5	Y5	Z5	X6	Y6	Z6	X7	Y7	Z7	X8	Y8	Z8	X9	Y9	Z9	X10	Y10	Z10	X11	Y11	Z11	X12	Y12	Z12	X13	Y13	Z13	X14	Y14	Z14	X15	Y15	Z15	X16	Y16	Z16	X17	Y17	Z17	X18	Y18	Z18	X19	Y19	Z19	X20	Y20	Z20	X21	Y21	Z21	X22	Y22	Z22	X23	Y23	Z23	X24	Y24	Z24	X25	Y25	Z25	X26	Y26	Z26	X27	Y27	Z27	X28	Y28	Z28	X29	Y29	Z29	X30	Y30	Z30	X31	Y31	Z31	X32	Y32	Z32	X33	Y33	Z33	X34	Y34	Z34	X35	Y35	Z35	X36	Y36	Z36	X37	Y37	Z37	X38	Y38	Z38	X39	Y39	Z39	X40	Y40	Z40	X41	Y41	Z41	X42	Y42	Z42	X43	Y43	Z43	X44	Y44	Z44	X45	Y45	Z45	X46	Y46	Z46	X47	Y47	Z47	X48	Y48	Z48	X49	Y49	Z49	

15	0.14000	278.80511	1489.73816	175.67282	277.97632	1496.97107	-174.10300	196.02740	1525.67554	12.41628	199.31189	1154.57910	-286.11224	237.03156	906.08685	-319.20721	252.07263	1154.73523	300.89185	396.16574	943.12756	277.86246	293.19421	1008.98401	150.92511	320.93048	1026.52563	-122.42175	132.00049	1088.02087	-2.31757	132.77966	1069.02197	-53.82266	122.56531	1064.23596	48.78627	111.32208	1001.90045	-6.43539	338.20154	743.47827	-171.36472	371.18228	647.40668	-146.66690	425.36774	777.96289	-100.49841	444.40396	681.50128	-85.55786	405.19434	518.24158	-125.93582	473.71173	539.98499	-62.85834	397.49759	527.57196	-3.37791	437.60147	384.21350	-42.62772	425.86417	256.22458	-33.82776	396.85468	318.40872	-123.71643	382.22784	98.24773	-82.93988	401.58890	124.23786	9.22256	311.44623	85.15172	-46.10681	470.42676	92.40327	-11.32089	441.04871	69.70909	-85.18393	506.06403	49.41910	-99.99091	538.70398	48.91014	16.49290	592.26794	49.80606	-10.42184	228.67700	711.57098	182.59860	213.17816	598.45959	169.71588	324.57889	708.41931	134.11490	307.76801	596.88757	119.05643	188.59869	501.36035	159.30270	270.48145	463.05118	107.34898	201.67358	492.75131	31.37807	125.41931	379.13046	85.64618	-5.55695	306.40106	81.92694	25.61060	401.17944	171.88229	-163.73566	256.87936	130.88573	-135.72485	252.51199	40.35149	-197.41943	317.92886	93.00058	-127.53430	165.60739	76.07837	-168.25781	176.02684	129.98267	-173.36859	114.78560	130.43295	-147.80353	95.07175	25.88136	-133.08508	48.61888	47.00673	
16	0.15000	292.34497	1491.42407	175.26215	292.63367	1498.85596	-174.59497	209.92426	1527.82324	11.68153	217.08112	1155.58289	-286.85455	259.51434	907.56842	-318.11310	263.51709	1155.93652	299.42767	401.52237	940.13062	278.60394	305.60150	1010.46771	150.56828	334.80994	1028.56982	-122.73523	145.78827	1089.85767	-2.98328	146.63171	1071.05261	-54.58203	136.19897	1065.95520	47.96454	124.94965	1003.87952	-7.36165	348.56332	744.29108	-171.60059	379.88110	647.67072	-146.73898	436.33774	776.82104	-100.99423	453.83289	680.20105	-85.56329	411.43033	517.89636	-126.40417	480.79074	538.54083	-63.07138	403.28348	526.98328	-4.43649	442.75601	383.51172	-42.83676	428.61371	255.73375	-33.72095	399.82953	318.38547	-123.32953	382.50616	98.38837	-82.50726	402.19852	124.22980	9.67442	311.70709	85.73273	-45.76062	470.67276	92.10703	-11.01688	441.07901	69.73399	-84.94644	506.05753	49.39039	-100.03540	538.93469	48.83741	16.46945	592.49347	48.93816	-10.36432	248.22571	712.75177	182.47324	236.29724	599.42529	169.36383	344.69766	711.61609	134.75946	331.35846	600.22369	119.59157	215.44830	502.68561	159.21695	297.17462	464.71252	106.71870	228.63861	494.37784	31.03018	151.37109	381.72241	85.08414	19.11011	311.34927	82.05685	52.26300	404.88428	171.82364	-139.68854	264.52737	130.96494	-111.77344	258.78595	41.03464	-171.55475	326.65585	91.82666	-106.21484	172.05212	77.91360	-147.10699	184.68195	131.45648	-154.24054	123.60315	132.94269	-128.47839	101.05459	29.07446	-116.25500	54.24898	52.01724	
17	0.16000	305.50635	1493.28662	174.97383	306.99506	1500.93164	-175.09402	223.18439	1530.46814	10.98715	234.62384	1156.80249	-287.67834	282.26575	909.46924	-316.82550	274.75372	1157.32446	298.02496	406.70511	937.63727	279.56418	317.52222	1012.01971	150.13882	348.49475	1030.75745	-122.99173	159.42340	1091.94080	-3.54498	160.31909	1073.23401	-55.17075	149.71454	1067.87134	47.35153	138.57025	1005.78467	-8.26003	358.21719	745.09869	-171.75580	387.71539	647.82587	-146.77338	446.64133	776.06421	-101.34506	462.61005	679.05280	-85.92053	416.65396	517.52496	-127.04242	487.10675	537.21088	-63.47623	409.19589	526.53101	-5.21306	447.17313	382.92560	-43.16833	430.88864	255.30457	-33.82660	402.23395	318.48822	-122.74142	382.76117	98.62277	-82.12402	402.80865	124.32050	10.05577	311.92480	86.32211	-45.36359	470.97443	91.83054	-10.70966	441.10178	69.76833	-84.69315	506.05109	49.37476	-100.10471	539.14417	48.74896	16.39299	592.70392	48.24495	-10.33139	267.42511	714.51227	182.46761	259.17108	601.05981	168.98007	364.39297	715.57465	135.29706	353.79285	603.74927	119.22191	242.19189	504.82275	159.11624	324.84058	468.04025	106.62250	255.46198	496.69717	30.76901	177.55487	384.49365	84.99580	44.20465	316.16351	82.30315	78.98914	408.90210	171.86768	-115.87860	272.65680	131.01985	-87.17230	264.90976	41.30904	-146.63763	334.35968	90.05148	-82.70001	178.64409	80.28802	-124.10645	193.10608	132.89513	-131.72443	132.02405	135.78085	-104.88513	106.88944	32.67839	-93.52686	60.34864	56.19864	
18	0.17000	318.36804	1495.37000	174.83640	320.96234	1503.20361	-175.44824	236.26874	1533.14954	10.45085	251.89581	1158.25244	-288.53021	305.20538	911.77118	-315.34491	285.79456	1158.95203	296.67557	411.61261	935.60541	280.52222	335.11798	1015.74109	149.76678	361.87320	1032.98254	-123.32806	172.90106	1094.17297	-3.94400	173.80756	1075.58313	-55.61993	163.14862	1070.00061	46.86859	151.85645	1008.22974	-8.78088	367.31415	746.00000	-171.84305	394.93048	648.14996	-146.89612	456.38800	775.55737	-101.49823	470.78455	678.13983	-86.34439	421.58246	517.58618	-127.34799	492.72369	535.95929	-63.90341	415.45209	527.09021	-4.67664	451.23849	382.40900	-43.63297	433.19147	255.04311	-33.88647	404.14130	318.44061	-122.23169	382.96487	98.91936	-81.73483	403.37399	124.47079	10.33743	312.13422	86.90108	-45.07422	471.22018	91.66302	-10.49591	441.10693	69.80191	-84.49954	506.05951	49.34493	-100.20551	539.25928	48.66596	16.26019	592.82904	47.75452	-10.34558	286.46094	716.74988	182.42789	281.83948	603.26996	168.63393	383.81323	719.93018	135.61427	376.65945	608.09119	119.13553	268.57086	507.68466	159.09360	351.50836	471.06369	106.46587	282.14844	499.41718	30.81934	203.90472	387.64142	84.99904	69.82172	320.77472	82.62895	105.33252	413.44434	171.89859	-91.14508	280.05389	130.67294	-61.83704	270.97266	41.13220	-121.81427	340.82245	88.32097	-57.30530	185.15791	82.16098	-98.95947	200.69699	134.27948	-106.08044	139.85413	138.85916	-78.53204	111.65542	36.48470	-67.63580	65.73251	61.51460	
19	0.18000	331.01160	1497.67175	174.81430	334.68884	1505.69836	-175.79010	249.77551	1535.59900	9.89810	268.93384	1159.99121	-289.40649	328.28119	914.63354	-313.68195	296.52026	1160.82947	295.41345	416.32581	934.15833	281.65900	347.54993	1017.88416	149.46265	375.09406	1035.30688	-123.88824	186.26080	1096.59668	-4.19737	187.05927	1078.08691	-55.88275	176.48901	1072.36755	46.57419	165.19818	1010.57385	-9.14764	375.39346	746.64673	-171.51266	401.93588	648.86145	-147.31522	465.77878	775.38293	-101.60101	478.51105	677.47681	-86.78009	426.27115	517.53076	-127.65350	497.71948	534.76855	-64.22623	420.46310	527.14453	-4.85782	454.55899	382.16446	-43.88687	434.98053	254.82535	-33.95828	406.73495	318.55386	-122.13098	383.17017	99.17854	-81.51569	403.75937	124.66611	10.48622	312.32294	87.43604	-44.98230	471.43085	91.60570	-10.39688	441.10373	69.83305	-84.38089	506.02332	49.28675	-100.32224	539.29340	48.65939	16.13359	592.89081	47.36826	-10.48273	305.13055	719.36804	182.38911	304.23254	606.10309	168.35242	403.16333	724.80591	135.97372	399.41254	613.03864	119.28999	294.49310	511.35202	159.06366	378.78180	475.39487	107.01785	308.98578	502.54514	31.19008	230.52386	391.19174	85.35825	96.09113	325.34906	82.50502	131.21906	418.73004	171.52806	-65.45422	286.27939	130.21605	-35.73950	275.82242	40.83577	-96.88165	346.01404	86.40572	-30.49683	190.98218	83.44882	-72.08301	207.25847	135.42096	-78.44171	146.38412	141.42877	-50.87988	115.96192	39.78207	-39.25262	70.86803	65.98660	
20	0.19000	343.50372	1500.19519	174.81354	348.18683	1508.36462	-175.97922	263.16992	1538.09827	9.43954	285.70148	1161.98706	-290.29797	351.38754	917.97394	-311.84497	306.92108	1162.96826	294.14383	420.79913	933.25787	282.84277	360.93829	1020.52515	148.92874	388.07358	1037.64355	-124.41776	199.52393	1099.15527	-4.34618	200.27313	1080.65613	-56.02609	189.80133	1074.92810	46.42871	178.24573	1013.18024	-9.28323	384.73300	748.35083	-172.31271	408.83887	649.65741	-147.92148	474.88806	775.31018	-101.79202	485.79913	676.78253	-87.09677	430.70929	517.71405	-128.01596	502.38550	533.71857	-64.64716	424.88507	527.31256	-5.18793	457.16846	381.85287	-44.03641	436.52496	254.83527	-34.03967	409.40045	318.69250	-121.81583	383.44696	99.49553	-81.46667	404.08646	124.97008	10.53093	312.58246	88.11241	-44.91977	471.66107	91.62032	-10.40353	441.11520	69.86409	-84.35431	505.99979	49.20076	-100.44452	539.32074	48.64503	15.99786	592.94312	47.02673	-10.64432	323.88977	722.24237	182.55133	326.58032	609.16321	168.07249	422.07339	729.83014	135.97060	421.86563	618.29846	119.66538	320.05011	515.55475	159.12155	405.43204	480.09131	107.68730	335.77652	505.89752	31.23013	257.50714	394.80505	85.91196	122.83392	329.29913	82.73140	157.03827	424.36282	170.61880	-39.06317	291.31699	129.70804	-8.93158	279.71719	40.54036	-71.46606	349.85443	84.76569	-2.62616	195.97174	84.39313	-44.11511	212.52675	136.22128	-48.15491	152.67206	144.63411	-21.93701	119.37633	42.59981	-9.72113	75.21854	69.59581	
